<svg xmlns="http://www.w3.org/2000/svg" width="93.749" height="116.553" viewBox="0 0 93.749 116.553">
  <path id="Path_51" data-name="Path 51" d="M-499.953,758.767l-43.7-43.7a2.577,2.577,0,0,0-3.644,0l-17.182,17.181a2.578,2.578,0,0,0,0,3.645l6.833,6.832a1.841,1.841,0,0,1-1.3,3.142h-53.036a2.577,2.577,0,0,0-2.577,2.577v24.3a2.577,2.577,0,0,0,2.577,2.577h53.036a1.841,1.841,0,0,1,1.3,3.142l-6.833,6.832a2.577,2.577,0,0,0,0,3.644l17.182,17.181a2.577,2.577,0,0,0,3.644,0l11.323-11.323a11.044,11.044,0,0,0,3.235-7.81l.052-9.451a2.577,2.577,0,0,1,4.4-1.808l3.869,3.869a2.578,2.578,0,0,0,3.645,0l17.181-17.181A2.577,2.577,0,0,0-499.953,758.767Z" transform="translate(807.37 615.065) rotate(90)" fill="none" stroke="#ff4000" stroke-width="1"/>
</svg>
