<svg xmlns="http://www.w3.org/2000/svg" width="61.112" height="49.251" viewBox="0 0 61.112 49.251">
  <path id="Path_14100" data-name="Path 14100" d="M-554.957,737.43l-22.73-22.73a1.34,1.34,0,0,0-1.9,0l-8.936,8.936a1.341,1.341,0,0,0,0,1.9l3.553,3.553a.957.957,0,0,1-.677,1.634h-27.583a1.34,1.34,0,0,0-1.34,1.34V744.7a1.34,1.34,0,0,0,1.34,1.34h27.583a.957.957,0,0,1,.677,1.634l-3.553,3.553a1.34,1.34,0,0,0,0,1.9l8.936,8.936a1.34,1.34,0,0,0,1.9,0l5.889-5.889a5.743,5.743,0,0,0,1.682-4.062l.027-4.915a1.34,1.34,0,0,1,2.288-.94l2.012,2.012a1.341,1.341,0,0,0,1.9,0l8.936-8.936A1.34,1.34,0,0,0-554.957,737.43Z" transform="translate(-553.953 762.948) rotate(180)" fill="none" stroke="#ff4000" stroke-width="1"/>
</svg>
