<svg xmlns="http://www.w3.org/2000/svg" viewBox="0 0 1146.97 129.22"><defs><style>.cls-1{fill:#f7a80d;}.cls-2{font-size:14px;}.cls-11,.cls-13,.cls-2{fill:#fff;}.cls-13,.cls-2{font-family:MyriadPro-Regular, Myriad Pro;}.cls-3{letter-spacing:0em;}.cls-4{letter-spacing:-0.01em;}.cls-5{letter-spacing:-0.04em;}.cls-6{letter-spacing:-0.03em;}.cls-7{letter-spacing:0.01em;}.cls-8{letter-spacing:0.02em;}.cls-9{letter-spacing:-0.01em;}.cls-10{letter-spacing:0em;}.cls-12{fill:#ee4323;}.cls-13{font-size:18px;}.cls-14{fill:#6181b6;}.cls-15{fill:#e44d26;}.cls-16{fill:#2e5775;}.cls-17{fill:#1572b6;}.cls-18{fill:#33a9dc;}.cls-19{fill:#ebebeb;}.cls-20{letter-spacing:-0.01em;}.cls-21{letter-spacing:0em;}.cls-22{letter-spacing:0.01em;}.cls-23{letter-spacing:0em;}.cls-24{fill:#f0db4f;}</style></defs><g id="Layer_2" data-name="Layer 2"><g id="Layer_1-2" data-name="Layer 1"><path class="cls-1" d="M42.37,65.31,32,69.77l9.61,4.1,11.15-4.1Zm-15.6,5.57-.35,20.06L41.6,97.62V76.8Zm31.2,0L44.25,76.1V95.74L58,90.17ZM74.33,8.48,63.89,12.94l9.68,4.11,11.14-4.11ZM59.85,14.4V34.46L72.8,38.22,73.22,20Zm29,1.11L76.56,20.74V40.45l12.26-5.58ZM25.27,36.71,14.9,41.17l9.61,4.11,11.14-4.11ZM9.67,42.28,9.32,62.34,24.51,69V48.2Zm31.2,0L27.15,47.5V67.14l13.72-5.57ZM58.7,36,48.32,40.42l9.61,4.11,11.15-4.11ZM43.1,41.54,42.75,61.6l15.18,6.68V47.46Zm31.2,0L60.58,46.76V66.4L74.3,60.83ZM107,8.48,96.61,12.94l9.61,4.11,11.14-4.11Zm-15.6,5.57L91,34.11l15.18,6.68V20Zm31.2,0-13.72,5.22V38.91l13.72-5.57Z"/><text class="cls-2" transform="translate(0 124.72)"><tspan class="cls-3">A</tspan><tspan x="8.53" y="0">ma</tspan><tspan class="cls-4" x="26.95" y="0">z</tspan><tspan x="32.84" y="0">on</tspan><tspan class="cls-5" x="48.3" y="0"> </tspan><tspan class="cls-6" x="50.76" y="0">W</tspan><tspan x="62.15" y="0">eb </tspan><tspan class="cls-7" x="80.09" y="0">S</tspan><tspan x="87.08" y="0">e</tspan><tspan class="cls-8" x="94.09" y="0">r</tspan><tspan x="99.02" y="0">vi</tspan><tspan class="cls-9" x="109.03" y="0">c</tspan><tspan class="cls-10" x="115.22" y="0">es</tspan></text><g id="plain-wordmark"><path class="cls-11" d="M225.63,119c-2.16,0-2.78-1.25-2.78-3.13a18,18,0,0,1,.17-2.08c.47-3.26,1.63-5.12,4.41-5.12,1.88,0,2.8.84,2.8,2.37v.75h1.87s0-.69,0-.84c0-2.24-1.35-4.36-4.69-4.36-4.53,0-6.39,2.46-7.07,7.29a12.05,12.05,0,0,0-.16,1.89c0,2.84,1.12,5.43,5.12,5.43a6.41,6.41,0,0,0,5.9-3.3l-1.79-1.21A4.17,4.17,0,0,1,225.63,119Z"/><path class="cls-11" d="M237.88,110.06c-3.63,0-5.19,1.86-5.72,5.56a9.58,9.58,0,0,0-.1,1.29c0,2.4,1.12,4.3,4.21,4.3,3.63,0,5.22-1.94,5.75-5.59a12.55,12.55,0,0,0,.09-1.33C242.11,111.86,241,110.06,237.88,110.06Zm1.51,5.56c-.39,2.69-1.24,3.51-2.82,3.51-1.28,0-1.9-.53-1.9-2.12a11,11,0,0,1,.11-1.39c.4-2.66,1.18-3.49,2.79-3.49,1.29,0,1.94.53,1.94,2.14A8.84,8.84,0,0,1,239.39,115.62Z"/><path class="cls-11" d="M251.23,106.82l-.61,3.6c0,.31,0,.21.1.5a4.35,4.35,0,0,0-2.27-.72c-3.26,0-5.08,1.48-5.67,5.59a7.84,7.84,0,0,0-.09,1.32c0,3,1.76,4.12,4.13,4.12a4,4,0,0,0,2.74-.63l.2,1.22h1.88l2.2-15Zm-1.86,11.74a4.5,4.5,0,0,1-2.27.65c-1.44,0-1.83-.75-1.83-1.94a11.69,11.69,0,0,1,.14-1.55c.45-3.12,1.45-3.67,2.74-3.67a4.08,4.08,0,0,1,2.1.48Z"/><path class="cls-11" d="M259.56,110.06c-3.59,0-5.27,1.7-5.84,5.56a10.74,10.74,0,0,0-.1,1.35c0,2.65,1.35,4.24,4.33,4.24a5.21,5.21,0,0,0,5-2.73l-2-.8a3,3,0,0,1-2.68,1.45c-1.45,0-2-.39-2-1.68a1.9,1.9,0,0,1,.06-.63h7.07c.1-1,.22-1.71.22-2.29C263.56,112.57,262.81,110.06,259.56,110.06Zm1.35,4.76H256.6c.43-1,1.16-2.55,2.65-2.55A1.6,1.6,0,0,1,261,114.1,3,3,0,0,1,260.91,114.82Z"/><polygon class="cls-11" points="271.1 109.82 271.34 107.82 265.81 107.82 265.57 109.82 267.02 109.82 265.46 119.82 264.01 119.82 263.77 121.82 269.3 121.82 269.53 119.82 268.08 119.82 269.65 109.82 271.1 109.82"/><path class="cls-11" d="M282.33,112.82l.71-2h-1.9l-1.37.28a5.45,5.45,0,0,0-2.79-.85c-2.8,0-5.19,1.35-5.19,4.43a3.28,3.28,0,0,0,.68,2,1.83,1.83,0,0,0-1.09,1.54,1.44,1.44,0,0,0,.35.93,3.75,3.75,0,0,0-1.9,3.25c0,2.65,2.76,3.21,4.88,3.21,2.66,0,5.84-.61,5.84-4,0-1.16-.73-2.06-2.82-2.45l-3.79-.71c-.43-.08-.53-.21-.53-.41a.42.42,0,0,1,.48-.45,1,1,0,0,1,.25,0,7.61,7.61,0,0,0,1.71.18c2.72,0,5.15-1.18,5.15-4.24a2.84,2.84,0,0,0-.27-1.19,4.44,4.44,0,0,0,.94.41Zm-5.39,8.11c.75.14,1,.41,1,.9,0,1.59-1.7,1.79-2.94,1.79-1.88,0-2.58-.45-2.58-1.45a2.4,2.4,0,0,1,.84-1.92Zm-.8-5.13c-1.14,0-1.76-.41-1.76-1.39a2.1,2.1,0,0,1,2.31-2.3c1.17,0,1.74.49,1.74,1.45A2,2,0,0,1,276.14,115.8Z"/><path class="cls-11" d="M289.3,110.06a5.39,5.39,0,0,0-3.3,1.49l-.17-.73h-2.16l-1.51,11h2.61l1.14-8.34a5.79,5.79,0,0,1,2.5-1.16c1,0,1.34.48,1.34,1.38a10.38,10.38,0,0,1-.06,1.09l-1,7h2.61l1-7.09c0-.33.08-.88.08-1.19C292.37,111.68,291.49,110.06,289.3,110.06Z"/><path class="cls-11" d="M297.32,119.06a1.32,1.32,0,0,1,0-.27l1.14-8h-4.33l-.27,2h1.9c-.16,0-.26.17-.28.33l-.78,5.31a9.08,9.08,0,0,0-.06,1,2.12,2.12,0,0,0,2.27,2.35h1.34l.29-2h-.84C297.42,119.82,297.32,119.3,297.32,119.06Z"/><path class="cls-12" d="M299,106.82h-2.55c-.15,0-.15-.58-.17-.38l-.36,2.82c0,.17,0,.56.14.56h2.55c.16,0,.16-.69.17-.86l.36-2.18C299.17,106.58,299.17,106.82,299,106.82Z"/><path class="cls-11" d="M304.33,119.13c-.65,0-1-.28-1-.86,0-.08,0,.06,0,0l.82-5.41h3l.9-2h-3.61l.61-4.4-2.74.88-.49,3.52h-1.59l-.28,2h1.85c-.18,1-.36.35-.38.55l-.7,4.74a2.83,2.83,0,0,0,0,.57c0,1.86,1.37,2.56,3,2.56a5.62,5.62,0,0,0,3.72-1.25l-1.21-1.5A3.16,3.16,0,0,1,304.33,119.13Z"/><path class="cls-11" d="M313.89,110.06c-3.59,0-5.27,1.7-5.84,5.56A10.74,10.74,0,0,0,308,117c0,2.65,1.35,4.24,4.33,4.24a5.21,5.21,0,0,0,5-2.73l-2-.8a3,3,0,0,1-2.68,1.45c-1.45,0-2-.39-2-1.68a1.9,1.9,0,0,1,.06-.63h7.07c.1-1,.22-1.71.22-2.29C317.89,112.57,317.15,110.06,313.89,110.06Zm1.35,4.76h-4.31c.43-1,1.16-2.55,2.65-2.55a1.6,1.6,0,0,1,1.72,1.83A3,3,0,0,1,315.24,114.82Z"/><path class="cls-11" d="M325.1,110.06a4,4,0,0,0-2.7,1.38l-.16-.62h-2.15l-1.51,11h2.62l1.16-8.52a4.54,4.54,0,0,1,2.21-.76,10.36,10.36,0,0,1,1.36,0l.33-2.27A6,6,0,0,0,325.1,110.06Z"/><path class="cls-12" d="M258.54,98.94c-5.93-2.56-11.49-9.08-11.5-15.75,0-7.27,4.59-13.44,10.32-17.5-.68,2.6-1.06,5,.65,7.31a6.92,6.92,0,0,0,7,2.65c6.13-1.35,6.41-8.09,2.78-12s-7.08-8.29-5.71-13.93a14.53,14.53,0,0,1,4.62-7.36c-1.69,4.44,3.12,8.82,6.28,11,5.49,3.79,11.51,6.65,16.56,11.09,5.31,4.66,9.23,11,8.44,18.28-.86,7.93-7.16,13.44-14.22,16.23,14.93-3.3,30.36-14.89,30.67-31.45.27-13.62-9.08-24.11-20.66-30.11l-.6-.33a5.07,5.07,0,0,1,.41,2,7.33,7.33,0,0,0,.19-1.34,6.47,6.47,0,0,1-.21,1.62c0-.09,0-.18,0-.28a6.85,6.85,0,0,1-.86,2,1.49,1.49,0,0,0,.17-.18c-2.31,3.83-8.56,4.66-11.65.7-5-6.38.1-13.26.81-20,.89-8.47-4.42-16.69-11-21.61,3.63,5.87-1.15,13.63-5,18s-8.22,7.72-12.31,11.54a102.3,102.3,0,0,0-12.23,13.25c-7.23,9.64-11.66,21.77-8.4,33.8S246.78,96.23,258.54,98.94Z"/></g><text class="cls-13" transform="translate(465.27 124.72)">php</text><g id="plain"><path class="cls-14" d="M480.51,24.69c-33.74,0-61.1,13.86-61.1,31s27.36,31,61.1,31,61.09-13.86,61.09-31S514.25,24.69,480.51,24.69Zm-15.9,37a11.91,11.91,0,0,1-4.86,2.51c-1.78.58-4.05.46-6.81.46h-6.26l-1.73,10h-7.3l6.51-34h14c4.23,0,7.31,1.22,9.25,3.43s2.51,5.37,1.74,9.34a14.62,14.62,0,0,1-4.58,8.26Zm21.31,3,2.88-14.42c.33-1.69.21-2.94-.36-3.55s-1.78-1-3.64-1H479l-3.73,19H468l6.51-33h7.25l-1.73,9h6.45c4.06,0,6.86.82,8.4,2.23s2,3.36,1.39,6.53l-3,15.24Zm40.26-11.18A15.18,15.18,0,0,1,524.57,58a14.74,14.74,0,0,1-3,3.72,11.78,11.78,0,0,1-4.86,2.51c-1.78.58-4.05.46-6.81.46h-6.25l-1.73,10h-7.3l6.51-34h14c4.22,0,7.31,1.22,9.24,3.43S527,49.5,526.18,53.47Z"/><path class="cls-14" d="M512.42,45.65h-5l-2.72,14h4.44c2.94,0,5.13-.29,6.57-1.4a8.42,8.42,0,0,0,2.92-5.42c.49-2.49.27-4.43-.66-5.46S515.2,45.65,512.42,45.65Z"/><path class="cls-14" d="M455.44,45.65h-5l-2.73,14h4.44c3,0,5.14-.29,6.58-1.4a8.51,8.51,0,0,0,2.92-5.42c.48-2.49.26-4.43-.66-5.46S458.21,45.65,455.44,45.65Z"/></g><g id="plain-wordmark-2" data-name="plain-wordmark"><path class="cls-15" d="M649,29.55,656.34,111l32.87,8.77,33-8.6,7.33-81.62Zm65.26,18.54-.46,5.29-.21,2.44H675.05L676,66.69H712.7l-.25,2L710.08,94.9l-.17,1.53L689.26,102h0l-20.63-5.36-1.4-15.45h10.11l.72,7.67,11.22,2.84v-.21h0l11.25-2.4,1.17-12.44H666.76l-2.48-27.93L664,45.85h50.48Z"/><path class="cls-15" d="M656.61,6.56h5.1v5h4.66v-5h5.09V21.8h-5.09V16.7h-4.66v5.1h-5.1V6.56Z"/><path class="cls-15" d="M678.16,11.62h-4.49V6.56h14.07v5.06h-4.49V21.8h-5.09V11.62Z"/><path class="cls-15" d="M690,6.56h5.31l3.27,5.36,3.26-5.36h5.31V21.8h-5.07V14.25l-3.5,5.42h-.09L695,14.25V21.8h-5Z"/><path class="cls-15" d="M709.66,6.56h5.09v10.2h7.17v5H709.66Z"/></g><g id="original-wordmark"><path id="Shape" class="cls-16" d="M918.74,8.71h-6.93L919,16.53v3.73H904.17V15.9h7.21l-7.21-7.82V4.35h14.57V8.71Zm-17.51,0H894.3l7.21,7.82v3.73H886.66V15.9h7.21l-7.21-7.82V4.35h14.57V8.71Zm-17.34.18h-7.48v6.82h7.48v4.55H871.1V4.35h12.79V8.89Z"/><path id="Shape-2" data-name="Shape" class="cls-17" d="M860.91,112.75l-7.6-85.23h83.5l-7.61,85.21L895,122.21Z"/><path id="Shape-3" data-name="Shape" class="cls-18" d="M895.06,115l27.63-7.66,6.5-72.82H895.06Z"/><g id="Group"><path id="Shape-4" data-name="Shape" class="cls-11" d="M895.06,65.36h13.83l1-10.7H895.06V44.21h26.21L921,47l-2.57,28.81H895.06Z"/><path id="Shape-5" data-name="Shape" class="cls-19" d="M895.12,92.51l0,0-11.64-3.15L882.69,81h-10.5l1.47,16.42,21.41,5.94h0Z"/><path id="Shape-6" data-name="Shape" class="cls-11" d="M908,75.38l-1.26,14-11.66,3.15V103.4l21.43-5.94.16-1.77,1.82-20.31Z"/><path id="Shape-7" data-name="Shape" class="cls-19" d="M895.09,44.21V54.66H869.84l-.21-2.35-.47-5.3-.25-2.8Z"/><path id="Shape-8" data-name="Shape" class="cls-19" d="M895.06,65.37V75.82h-11.5l-.21-2.35-.47-5.3-.25-2.8Z"/></g></g><text class="cls-13" transform="translate(1065.19 124.72)">J<tspan class="cls-20" x="6.66" y="0">a</tspan><tspan class="cls-21" x="15.19" y="0">v</tspan><tspan x="23.78" y="0">a</tspan><tspan class="cls-22" x="32.45" y="0">S</tspan><tspan x="41.44" y="0">c</tspan><tspan class="cls-23" x="49.5" y="0">r</tspan><tspan x="55.46" y="0">ipt</tspan></text><path id="plain-2" data-name="plain" class="cls-24" d="M1057.7,3.52V92.79H1147V3.52Zm47.22,76.06a10.58,10.58,0,0,1-6.75,5.29,16.24,16.24,0,0,1-12-1.47,13.46,13.46,0,0,1-4.93-5.64l6.8-4.17a4.5,4.5,0,0,1,.48.77,7.13,7.13,0,0,0,3.08,3.2c1.45.49,4.61.81,5.84-1.73.75-1.29.51-5.45.51-10,0-7.22,0-14.41,0-21.56h8.36c0,7.86,0,15.3,0,23C1106.41,71.89,1106.82,76.07,1104.92,79.58Zm34.69-2.36c-2.91,9.94-19.12,10.27-25.59,3.7a15.07,15.07,0,0,1-3-4.14l6.79-3.92c1.81,2.8,3.5,4.34,6.52,5,4.11.5,8.24-.91,7.31-5.27-.95-3.56-8.4-4.43-13.48-8.24-5.15-3.46-6.35-11.86-2.12-16.66a11.86,11.86,0,0,1,6.34-3.74l2.63-.34c5.06-.1,8.22,1.23,10.54,3.82a16.9,16.9,0,0,1,2.16,2.89c-2.7,1.72-2.69,1.7-6.55,4.2a6.18,6.18,0,0,0-3.63-3.37c-2.25-.68-5.08.05-5.66,2.43a4.56,4.56,0,0,0,.16,2.61c.91,2.08,4,3,6.7,4.24,7.87,3.19,10.53,6.62,11.19,10.69A12.27,12.27,0,0,1,1139.61,77.22Z"/></g></g></svg>