<svg xmlns="http://www.w3.org/2000/svg" xmlns:xlink="http://www.w3.org/1999/xlink" viewBox="0 0 1140.39 135.36"><defs><style>.cls-1{fill:#1c78c0;}.cls-2,.cls-8{fill:#fff;}.cls-3{fill:#fc6d26;}.cls-4{fill:#e24329;}.cls-5{fill:#fca326;}.cls-6,.cls-7{fill:#ff4000;}.cls-6{fill-rule:evenodd;}.cls-8{font-size:18px;font-family:MyriadPro-Regular, Myriad Pro;}.cls-9{fill:url(#linear-gradient);}.cls-10{fill:url(#linear-gradient-2);}.cls-11{fill:url(#linear-gradient-3);}.cls-12{fill:url(#linear-gradient-4);}.cls-13{fill:url(#linear-gradient-5);}.cls-14{fill:url(#linear-gradient-6);}.cls-15{fill:#dd4814;}</style><linearGradient id="linear-gradient" x1="-1072.66" y1="268.7" x2="-1071.95" y2="267.94" gradientTransform="matrix(82.49, 0, 0, -81.43, 89147.6, 21888.65)" gradientUnits="userSpaceOnUse"><stop offset="0" stop-color="#f9a03c"/><stop offset="1" stop-color="#f7974e"/></linearGradient><linearGradient id="linear-gradient-2" x1="-1051.44" y1="264.29" x2="-1050.09" y2="262.97" gradientTransform="matrix(40.21, 0, 0, -40.41, 42894.05, 10700.1)" xlink:href="#linear-gradient"/><linearGradient id="linear-gradient-3" x1="-1052.96" y1="265.03" x2="-1051.75" y2="263.65" gradientTransform="matrix(41.04, 0, 0, -39.93, 43853.69, 10621.97)" xlink:href="#linear-gradient"/><linearGradient id="linear-gradient-4" x1="-1085.08" y1="271.93" x2="-1084.81" y2="271.58" gradientTransform="matrix(255.83, 0, 0, -242.02, 278237.05, 65811.03)" gradientUnits="userSpaceOnUse"><stop offset="0" stop-color="#f26d58"/><stop offset="1" stop-color="#f9a03c"/></linearGradient><linearGradient id="linear-gradient-5" x1="-1081.47" y1="271.07" x2="-1081.08" y2="270.81" gradientTransform="matrix(160.73, 0, 0, -174.81, 174494.48, 47390.68)" gradientUnits="userSpaceOnUse"><stop offset="0" stop-color="#b84e51"/><stop offset="1" stop-color="#f68e48"/></linearGradient><linearGradient id="linear-gradient-6" x1="-1081.95" y1="269.32" x2="-1081.93" y2="268.85" gradientTransform="matrix(176.77, 0, 0, -92.63, 191906.49, 25013.71)" xlink:href="#linear-gradient"/></defs><g id="Layer_2" data-name="Layer 2"><g id="Layer_1-2" data-name="Layer 1"><g id="plain-wordmark"><path class="cls-1" d="M80.36,73,44.84,93.08V77.43L67,65.25,80.36,73Zm2.44-2.2v-42l-13,7.51v27l13,7.5ZM6.2,73l35.52,20.1V77.43L19.57,65.25Zm-2.44-2.2v-42l13,7.51v27ZM5.29,26,41.72,5.43V20.55L18.38,33.4l-.19.1Zm76,0L44.84,5.43V20.55L68.18,33.38l.19.11L81.27,26Z"/><path class="cls-1" d="M41.72,73.87l-21.84-12V38.06L41.72,50.67Zm3.12,0,21.84-12V38.06L44.84,50.67ZM21.36,35.32l21.92-12L65.2,35.32,43.28,48,21.36,35.32Z"/><path class="cls-2" d="M10.84,126.93h3.32l3.39-11.27H14.31l-2,8-2.14-8H7.37l-2.15,8-2-8H0l3.36,11.27H6.68l2.09-7.22Zm6.88-5.61a5.62,5.62,0,0,0,5.93,5.89,5.35,5.35,0,0,0,4.74-2.48l-2-1.49a3.29,3.29,0,0,1-2.74,1.38A2.75,2.75,0,0,1,20.75,122h7.94c0-.22,0-.43,0-.65,0-3.69-2-6-5.47-6-3.22,0-5.52,2.54-5.52,5.94Zm3.12-1.23a2.39,2.39,0,0,1,2.44-2.28,2.29,2.29,0,0,1,2.41,2.28Zm9,6.84h2.81v-1.17A4.36,4.36,0,0,0,36,127.21c3.23,0,5.52-2.43,5.52-5.91s-2.11-5.92-5.35-5.92a4.25,4.25,0,0,0-3.34,1.46v-5.5h-3v15.59Zm2.89-5.61c0-2.11,1.25-3.31,2.89-3.31s2.89,1.36,2.89,3.31-1.21,3.26-2.89,3.26a3,3,0,0,1-2.89-3.26ZM42.66,131h3v-5.2A4.28,4.28,0,0,0,49,127.2c3.23,0,5.35-2.43,5.35-5.92s-2.29-5.9-5.52-5.9a4.29,4.29,0,0,0-3.34,1.46v-1.19H42.65V131Zm2.88-9.7A3,3,0,0,1,48.43,118c1.68,0,2.89,1.25,2.89,3.25s-1.16,3.32-2.89,3.32-2.89-1.21-2.89-3.32Zm9.32,2.18c0,2.36,1.93,3.77,4.22,3.77a3.56,3.56,0,0,0,2.74-1l.19.73h2.63v-7.14c0-2.52-1.08-4.41-4.7-4.41a8.42,8.42,0,0,0-4.44,1.33l1.13,2a6.63,6.63,0,0,1,3-.8c1.32,0,2.05.67,2.05,1.66v.73a4.6,4.6,0,0,0-2.44-.62c-2.63,0-4.37,1.51-4.37,3.73Zm3-.09c0-.93.79-1.58,1.94-1.58s2,.59,2,1.58-.82,1.55-1.94,1.55-2-.62-2-1.55Zm14,1.23a3.12,3.12,0,0,1-3.21-3.28A3.08,3.08,0,0,1,71.76,118a3.86,3.86,0,0,1,2.63,1.07l.84-2.5a5.73,5.73,0,0,0-3.56-1.2,5.81,5.81,0,0,0-6,5.94,5.73,5.73,0,0,0,6,5.89A5.64,5.64,0,0,0,75.2,126l-.79-2.43a4.18,4.18,0,0,1-2.55,1Zm4.46,2.35h3v-5.82l3.78,5.82h3.49l-4.27-6.17,4-5.11H82.92l-3.63,4.75v-9.06h-3v15.59Z"/></g><g id="original-wordmark"><g id="Page-1"><g id="logo-square"><path id="path46" class="cls-3" d="M298.33,48.86,293.19,33,283,1.69a1.75,1.75,0,0,0-3.33,0L269.48,33H235.66L225.47,1.69a1.75,1.75,0,0,0-3.33,0L212,33l-5.14,15.82a3.5,3.5,0,0,0,1.27,3.91l44.49,32.32,44.49-32.32a3.5,3.5,0,0,0,1.27-3.91"/><path id="path50" class="cls-4" d="M252.57,85.09h0l16.91-52H235.66l16.91,52.05Z"/><path id="path58" class="cls-3" d="M252.57,85.09,235.66,33H212l40.62,52.05Z"/><path id="path66" class="cls-5" d="M212,33h0l-5.14,15.82a3.5,3.5,0,0,0,1.27,3.91l44.49,32.32L212,33Z"/><path id="path74" class="cls-4" d="M212,33h23.71L225.47,1.69a1.75,1.75,0,0,0-3.33,0L212,33Z"/><path id="path78" class="cls-3" d="M252.57,85.09l16.91-52h23.71L252.57,85.09Z"/><path id="path82" class="cls-5" d="M293.19,33h0l5.14,15.82a3.49,3.49,0,0,1-1.28,3.91L252.57,85.09l40.62-52Z"/><path id="path86" class="cls-4" d="M293.19,33H269.48L279.67,1.69a1.75,1.75,0,0,1,3.33,0L293.19,33Z"/></g></g><path id="path14" class="cls-2" d="M254,93.08h-4.49v33.4h18.16v-4.13H254V93.08Z"/><g id="g24"><path id="path26" class="cls-2" d="M284.93,120.62a7.65,7.65,0,0,1-5.56,2.34c-3.41,0-4.79-1.68-4.79-3.87,0-3.32,2.29-4.9,7.19-4.9a19.43,19.43,0,0,1,3.16.26v6.17Zm-4.64-20.25a14.93,14.93,0,0,0-9.54,3.42l1.58,2.75a13.76,13.76,0,0,1,7.3-2.14c3.67,0,5.3,1.89,5.3,5v1.63a19.43,19.43,0,0,0-3.11-.26c-7.85,0-11.83,2.76-11.83,8.52,0,5.15,3.16,7.75,7.95,7.75,3.23,0,6.33-1.48,7.4-3.87l.82,3.26h3.16V109.4c0-5.41-2.35-9-9-9Z"/></g><g id="g28"><path id="path30" class="cls-2" d="M303.8,123.12a10.58,10.58,0,0,1-4.28-.72V107a8.83,8.83,0,0,1,5.81-2.19c4.34,0,6,3.06,6,8,0,7-2.7,10.36-7.55,10.36m1.89-22.75a8.22,8.22,0,0,0-6.17,2.73V98.79l0-5.71h-4.38v32.59a22.94,22.94,0,0,0,8.47,1.42c8.37,0,12.39-5.35,12.39-14.58,0-7.3-3.72-12.14-10.3-12.14"/></g><g id="g32"><path id="path34" class="cls-2" d="M205.16,96.7a12.67,12.67,0,0,1,8.21,2.65L215.3,96a15,15,0,0,0-9.93-3.55c-9.54,0-16.22,5.82-16.22,17.55,0,12.29,7.2,17.08,15.45,17.08a26.4,26.4,0,0,0,10-1.93l-.1-13.14v-4.13H202.21V112H210l.09,10a12.29,12.29,0,0,1-5.2.92c-6.63,0-11.07-4.17-11.07-13s4.59-13.26,11.32-13.26"/></g><g id="g36"><path id="path38" class="cls-2" d="M236.73,93.08h-4.39l0,5.61v19.38c0,5.4,2.34,9,9,9a15.06,15.06,0,0,0,2.7-.24v-3.94a13.12,13.12,0,0,1-2,.15c-3.67,0-5.31-1.88-5.31-5V104.65h7.35V101h-7.35v-7.9Z"/></g><path id="path40" class="cls-2" d="M221.21,126.48h4.39V101h-4.39v25.5Z"/><path id="path42" class="cls-2" d="M221.21,97.46h4.39V93.08h-4.39v4.38Z"/></g><g id="original-wordmark-2" data-name="original-wordmark"><path class="cls-6" d="M460.49,0A42.55,42.55,0,0,0,447,82.91c2.13.4,2.91-.92,2.91-2s0-4.37-.06-7.92c-11.83,2.57-14.33-5-14.33-5-1.94-4.92-4.72-6.23-4.72-6.23-3.86-2.64.29-2.58.29-2.58,4.27.3,6.52,4.38,6.52,4.38,3.79,6.5,10,4.62,12.38,3.54a9,9,0,0,1,2.7-5.69c-9.45-1.08-19.38-4.73-19.38-21a16.48,16.48,0,0,1,4.38-11.42c-.44-1.07-1.9-5.4.41-11.26,0,0,3.58-1.14,11.7,4.36a40.41,40.41,0,0,1,21.31,0c8.12-5.5,11.69-4.36,11.69-4.36,2.32,5.86.86,10.19.42,11.26a16.44,16.44,0,0,1,4.38,11.42c0,16.34-10,19.94-19.43,21,1.53,1.32,2.88,3.91,2.88,7.88,0,5.7,0,10.28,0,11.68,0,1.13.76,2.46,2.92,2A42.55,42.55,0,0,0,460.49,0Z"/><path class="cls-7" d="M434.06,61.08c-.09.22-.42.28-.73.13s-.48-.42-.38-.63.43-.28.73-.14.49.43.38.64Z"/><path class="cls-7" d="M435.79,63a.66.66,0,0,1-.87-.2c-.28-.3-.33-.69-.13-.88s.6-.1.88.19.33.7.12.89Z"/><path class="cls-7" d="M437.46,65.46c-.26.18-.68,0-.95-.37s-.26-.83,0-1,.68,0,1,.35.26.84,0,1Z"/><path class="cls-7" d="M439.76,67.82c-.23.26-.73.19-1.09-.16s-.48-.83-.24-1.09.73-.18,1.1.17.48.83.23,1.08Z"/><path class="cls-7" d="M442.93,69.2c-.1.33-.58.48-1.06.34s-.8-.53-.7-.87.58-.49,1.07-.34.79.53.69.87Z"/><path class="cls-7" d="M446.41,69.45c0,.35-.39.65-.9.65s-.92-.27-.92-.62.4-.64.9-.65.92.28.92.62Z"/><path class="cls-7" d="M449.65,68.9c.06.34-.29.7-.79.79s-.95-.12-1-.46.29-.7.79-.79.95.11,1,.46Z"/><path class="cls-2" d="M421.35,106.79h-10.7a.5.5,0,0,0-.5.5v5.23a.5.5,0,0,0,.5.5h4.17v6.5a12.57,12.57,0,0,1-3.53.32c-3.05,0-7.32-1.11-7.32-10.51s4.44-10.63,8.62-10.63a16.79,16.79,0,0,1,6.16,1,.51.51,0,0,0,.6-.49l1.19-5.06a.46.46,0,0,0-.19-.39c-.4-.29-2.86-1.66-9.06-1.66-7.14,0-14.47,3-14.47,17.65s8.39,16.79,15.46,16.79a17.42,17.42,0,0,0,9.41-2.5.45.45,0,0,0,.16-.38V107.29A.5.5,0,0,0,421.35,106.79Z"/><path class="cls-2" d="M476,93.3h-6a.49.49,0,0,0-.49.5v11.65h-9.39V93.8a.5.5,0,0,0-.5-.5h-6a.49.49,0,0,0-.49.5v31.53a.49.49,0,0,0,.49.5h6a.5.5,0,0,0,.5-.5V111.84h9.39l0,13.49a.5.5,0,0,0,.5.5h6a.5.5,0,0,0,.5-.5V93.8A.5.5,0,0,0,476,93.3Z"/><path class="cls-2" d="M428.83,94a3.92,3.92,0,1,0,3.89,3.92A3.9,3.9,0,0,0,428.83,94Z"/><path class="cls-2" d="M431.79,103.62h-6a.58.58,0,0,0-.52.56V125c0,.62.38.8.88.8h5.41c.59,0,.74-.29.74-.81V104.13A.5.5,0,0,0,431.79,103.62Z"/><path class="cls-2" d="M499.4,103.67h-6a.5.5,0,0,0-.5.5v15.46a6.73,6.73,0,0,1-3.68,1.12c-2.15,0-2.72-1-2.72-3.09V104.17a.51.51,0,0,0-.5-.5H480a.51.51,0,0,0-.5.5v14.51c0,6.27,3.5,7.8,8.3,7.8a14,14,0,0,0,7.13-2.18,12.47,12.47,0,0,0,.22,1.29.54.54,0,0,0,.44.27l3.86,0a.5.5,0,0,0,.5-.5V104.17A.5.5,0,0,0,499.4,103.67Z"/><path class="cls-2" d="M515.74,103a11.22,11.22,0,0,0-5.71,1.52V93.8a.5.5,0,0,0-.5-.5h-6a.5.5,0,0,0-.5.5v31.53a.5.5,0,0,0,.5.5h4.2a.49.49,0,0,0,.43-.26,9.27,9.27,0,0,0,.26-1.46,10.81,10.81,0,0,0,7.15,2.34c5.49,0,8.64-2.78,8.64-12.5S519.14,103,515.74,103Zm-2.36,17.77a7.24,7.24,0,0,1-3.48-1v-10a8.08,8.08,0,0,1,3.09-1c2.15-.19,4.23.46,4.23,5.6C517.22,119.74,516.28,120.81,513.38,120.73Z"/><path class="cls-2" d="M449.69,120.61c-.26,0-.94.11-1.63.11-2.22,0-3-1-3-2.37v-8.87h4.52a.49.49,0,0,0,.49-.5v-4.86a.49.49,0,0,0-.49-.5h-4.52v-6c0-.23-.12-.34-.38-.34h-6.16c-.24,0-.37.11-.37.34v6.17l-3.29.8a.5.5,0,0,0-.36.48V109a.5.5,0,0,0,.5.5h3.15v9.33c0,6.93,4.86,7.61,8.14,7.61a13.78,13.78,0,0,0,3.59-.59.46.46,0,0,0,.28-.45v-4.27A.51.51,0,0,0,449.69,120.61Z"/></g><text class="cls-8" transform="translate(655.34 127.09)">d3.js</text><g id="original"><path class="cls-9" d="M720.19,68c0-.42.07-.85.1-1.28S689.7,37.19,689.7,37.19H689S720,69.93,720.19,68Z"/><path class="cls-10" d="M654.86,58l-.12.27-.14.28c-1,2,13.67,16.35,14.85,14.61,0-.08.1-.16.16-.24s.12-.18.17-.27c1-1.43-14.5-15.58-14.92-14.65Z"/><path class="cls-11" d="M675.55,78.08a4,4,0,0,1-.61.85c0,.09,14.29,14.31,14.29,14.31h1.3s-13.46-14.56-15-15.16Z"/><path class="cls-12" d="M720.31,66.49a28.05,28.05,0,0,1-28,26.75h-2l-15-14.78a54.13,54.13,0,0,0,3.4-5.42h13.64a7.82,7.82,0,0,0,0-15.64h-8.07a54.31,54.31,0,0,0,1-10,53.4,53.4,0,0,0-1-10.18h5l31,30.53q.06-.61.09-1.23Zm-89-65.15h-8.15V21.55h8.15a25.82,25.82,0,0,1,23.43,36.67l14.87,14.65a46,46,0,0,0-38.3-71.53Z"/><path class="cls-13" d="M692.32,1.34h-33a54.28,54.28,0,0,1,19.28,20.21h13.73a7.82,7.82,0,0,1,0,15.64h-3.09l31,30.53c.07-.82.12-1.66.12-2.5a27.89,27.89,0,0,0-6.5-17.93A28,28,0,0,0,692.32,1.34Z"/><path class="cls-14" d="M690.28,93.24H659.54a54.26,54.26,0,0,0,15.74-14.78l15,14.78ZM669.61,72.87,654.74,58.22a25.86,25.86,0,0,1-23.43,15h-8.15v20.2h8.15a46,46,0,0,0,38.3-20.52Z"/></g><text class="cls-8" transform="translate(859.96 130.86)">Bash</text><path class="cls-7" d="M908.11,21.21,879,3.92a11,11,0,0,0-11.24,0L838.59,21.21a11.62,11.62,0,0,0-5.62,10v34.6a11.62,11.62,0,0,0,5.62,10l29.14,17.29a11,11,0,0,0,11.24,0l29.14-17.29a11.62,11.62,0,0,0,5.62-10V31.22A11.62,11.62,0,0,0,908.11,21.21Zm-22.56,54,0,2.49a.9.9,0,0,1-.42.76l-1.47.85c-.24.12-.43,0-.44-.33l0-2.44a4.81,4.81,0,0,1-3.36.32c-.15-.06-.22-.29-.15-.55l.53-2.24a.94.94,0,0,1,.26-.47.61.61,0,0,1,.14-.1.34.34,0,0,1,.24,0A4.06,4.06,0,0,0,884,73.1a4,4,0,0,0,2.28-3.48c0-1.27-.7-1.79-2.36-1.8-2.11,0-4.09-.41-4.12-3.53a9,9,0,0,1,3.42-6.92l0-2.51a.91.91,0,0,1,.43-.77l1.42-.91c.24-.12.43,0,.44.33l0,2.52a4.56,4.56,0,0,1,2.79-.34c.18,0,.26.29.19.58l-.56,2.22a.91.91,0,0,1-.25.45.61.61,0,0,1-.14.1.36.36,0,0,1-.22,0,3.69,3.69,0,0,0-2.69.43,3.38,3.38,0,0,0-2,3c0,1.15.6,1.49,2.62,1.53,2.69,0,3.86,1.22,3.88,3.93A9.64,9.64,0,0,1,885.55,75.23Zm20.34-46.72-27.57,17c-3.44,2-6,4.26-6,8.41v34c0,2.49,1,4.09,2.54,4.56a8.62,8.62,0,0,1-1.53.15,9,9,0,0,1-4.6-1.27L839.61,74.06A9.6,9.6,0,0,1,835,65.82V31.22A9.57,9.57,0,0,1,839.61,23l29.14-17.3a9,9,0,0,1,9.21,0L907.1,23a9.49,9.49,0,0,1,4.47,6.66C910.61,27.59,908.43,27,905.89,28.51Z"/><path class="cls-2" d="M900.48,69.16l-7.26,4.34c-.19.12-.34.24-.34.47v1.9c0,.23.16.33.35.22l7.37-4.48a.59.59,0,0,0,.22-.56V69.38C900.82,69.15,900.67,69.05,900.48,69.16Z"/><g id="plain-wordmark-2" data-name="plain-wordmark"><path class="cls-15" d="M1082.91,6.32a41.57,41.57,0,1,0,41.57,41.57A41.57,41.57,0,0,0,1082.91,6.32Zm9.33,14.32a5.55,5.55,0,1,1,2,7.57A5.55,5.55,0,0,1,1092.24,20.64Zm-9.33,3.14a24,24,0,0,1,6.44.88,7.8,7.8,0,0,0,10.45,6A24,24,0,0,1,1107,46.34l-7.91.11a16.21,16.21,0,0,0-23-13.26l-3.85-6.92A24.07,24.07,0,0,1,1082.91,23.78Zm-28.26,29.66a5.55,5.55,0,1,1,5.55-5.55A5.55,5.55,0,0,1,1054.65,53.44Zm4.92.49a7.8,7.8,0,0,0,0-12.09,24.17,24.17,0,0,1,10-14l4,6.8a16.2,16.2,0,0,0,0,26.52l-4,6.8A24.16,24.16,0,0,1,1059.57,53.93Zm40.25,23.24a5.55,5.55,0,1,1,2-7.58A5.54,5.54,0,0,1,1099.82,77.17Zm0-12.09a7.8,7.8,0,0,0-10.45,6,24,24,0,0,1-17.12-1.62l3.85-6.91a16.21,16.21,0,0,0,23-13.26l7.91.11A24,24,0,0,1,1099.8,65.08Z"/><path class="cls-2" d="M1037.66,119.48c-1,0-.48.09-.78.13l-1.06.12c-.36,0-.78.07-1.2.1s-.83,0-1.21,0a4.64,4.64,0,0,1-4-1.59c-.77-1.06-1.21-2.82-1.21-5.28V102.83h-2.83v11a16.37,16.37,0,0,0,.08,3.74,7.64,7.64,0,0,0,1.22,2.93,6.19,6.19,0,0,0,2.47,1.92,9.8,9.8,0,0,0,3.87.67,25.14,25.14,0,0,0,4.44-.34c1.36-.24,2.06-.46,3-.66V102.83h-2.82Z"/><path class="cls-2" d="M1061.57,104.94a8,8,0,0,0-2.85-2.17,9.94,9.94,0,0,0-6.88-.31c-.89.31-1,.61-1.93.89V92.53l-3.77.62V122c0,.23,1.91.46,3.2.69a24.8,24.8,0,0,0,4.47.35,11.33,11.33,0,0,0,4.19-.73,9.06,9.06,0,0,0,3.18-2.1,9.25,9.25,0,0,0,2-3.31,12.69,12.69,0,0,0,.72-4.4,14.45,14.45,0,0,0-.6-4.27A9.65,9.65,0,0,0,1061.57,104.94Zm-3.14,13a6,6,0,0,1-4.65,1.92,17.81,17.81,0,0,1-2.4-.13c-.66-.09-.53-.19-1.47-.29V106.72c.94-.36,1-.71,1.84-1a6.88,6.88,0,0,1,2.68-.51,5.81,5.81,0,0,1,2.64.56,5,5,0,0,1,1.8,1.55,6.76,6.76,0,0,1,1,2.35,12.86,12.86,0,0,1,.31,2.91A7.8,7.8,0,0,1,1058.43,118Z"/><path class="cls-2" d="M1080.07,119.48s-.15.09-.45.13l-.89.12-1.12.1c-.41,0-.79,0-1.18,0a4.31,4.31,0,0,1-3.8-1.59c-.77-1.06-1.05-2.82-1.05-5.28V102.83h-3.77v11a15.53,15.53,0,0,0,.41,3.74,7.88,7.88,0,0,0,1.39,2.93,6.38,6.38,0,0,0,2.55,1.92,10,10,0,0,0,3.91.67,27,27,0,0,0,4.6-.34c1.36-.24,2.22-.46,3.17-.66V102.83h-3.77Z"/><path class="cls-2" d="M1103.81,104.61a6.31,6.31,0,0,0-2.54-1.9,10.25,10.25,0,0,0-4-.68,33.39,33.39,0,0,0-5.08.35c-1.37.23-2.71.45-3.65.66v18.64h3.77V105.6s.61-.06.91-.12.76-.09,1.14-.13.84-.07,1.25-.1.85,0,1.23,0a6.77,6.77,0,0,1,2.42.37,3.31,3.31,0,0,1,1.56,1.18,5.39,5.39,0,0,1,.75,2.13,17.9,17.9,0,0,1,.16,3.18v9.61h3.77V111.3a17.49,17.49,0,0,0-.37-3.76A7.37,7.37,0,0,0,1103.81,104.61Z"/><path class="cls-2" d="M1120.23,119.5a7.8,7.8,0,0,1-2.64.37,5,5,0,0,1-1.63-.24,2.52,2.52,0,0,1-1.16-.79,4.29,4.29,0,0,1-1.11-1.55,9.64,9.64,0,0,1-.64-2.5v-9.13h8.49v-2.83h-8.49V96.22l-2.82.62v18a16.87,16.87,0,0,0,.34,3.54,6.24,6.24,0,0,0,1.16,2.58,4.92,4.92,0,0,0,2.15,1.57,9.42,9.42,0,0,0,3.4.52,10.71,10.71,0,0,0,3.12-.42,15.08,15.08,0,0,0,1.92-.7l-.78-3C1121.31,119.08,1120.87,119.25,1120.23,119.5Z"/><path class="cls-2" d="M1137.56,102.83v16.65s-.37.09-.66.13l-1,.12-1.17.1c-.41,0-.82,0-1.2,0a4.87,4.87,0,0,1-4.08-1.59,9.06,9.06,0,0,1-1.32-5.28V102.83h-2.82v11a15.51,15.51,0,0,0,.19,3.74,7.57,7.57,0,0,0,1.28,2.93,6.22,6.22,0,0,0,2.5,1.92,9.85,9.85,0,0,0,3.88.67,23.77,23.77,0,0,0,4.33-.34c1.36-.24,1.93-.46,2.9-.66V102.83Z"/></g></g></g></svg>