<svg xmlns="http://www.w3.org/2000/svg" viewBox="0 0 1162.46 128.13"><defs><style>.cls-1,.cls-19{fill:#fff;}.cls-2{fill:#cb3837;}.cls-3{fill:#00618a;}.cls-4{fill:#e48e00;}.cls-5{fill:#439934;}.cls-10,.cls-11,.cls-12,.cls-13,.cls-14,.cls-15,.cls-16,.cls-17,.cls-18,.cls-19,.cls-5,.cls-6,.cls-7,.cls-8,.cls-9{fill-rule:evenodd;}.cls-6{fill:#45a538;}.cls-7{fill:#46a037;}.cls-8{fill:#409433;}.cls-9{fill:#4faa41;}.cls-10{fill:#4aa73c;}.cls-11{fill:#57ae47;}.cls-12{fill:#60b24f;}.cls-13{fill:#a9aa88;}.cls-14{fill:#b6b598;}.cls-15{fill:#c2c1a7;}.cls-16{fill:#cecdb7;}.cls-17{fill:#dbdac7;}.cls-18{fill:#ebe9dc;}</style></defs><g id="Layer_2" data-name="Layer 2"><g id="Layer_1-2" data-name="Layer 1"><g id="original-wordmark"><path id="path2509" class="cls-1" d="M98.19,49.08c-1.59,7.34-7,31.74-7,31.74H102c.65-3,1.15-5.78,1.88-8.83,1.3-5.42,2.75-7.57,6.6-7.57,1.7,0,3.46.58,3.46,2.89,0,1.06-2.42,11.41-2.85,13.51h10.72s3.32-16.12,3.35-16.3c.11-.54.35-2.13.35-2.13,0-3.85-5-5.67-7.61-5.74a23.81,23.81,0,0,0-2.39,0,15,15,0,0,0-9,3.61l-.2.15.1-.26,2.44-10.86a.36.36,0,0,0-.1-.21Zm-51,7.27c-1.05,0-2.79,0-5.58,0-5.58.13-13.91,1.85-13.91,9.85,0,4.52,4.2,4.91,7.92,5.28,2.91.29,5.79.62,8.63.91.82.08,1.62.26,1.62,1.17,0,1.54-1.27,2-3,2.18a6.34,6.34,0,0,1-2.19,0c-1.12,0-3-.67-2.79-2.28H25.23v1.88c0,6,9.77,6.07,11.57,6.29H40l4.83-.15c6.44-.42,13.41-2.35,13.71-10,.2-5.31-6.58-5.16-9.55-5.49h-.81c-.15,0-4.76-.47-7.06-.71-.35,0-1.93-.27-1.93-1.22,0-1.87,3.46-1.82,4.21-1.82,1.22,0,3.86-.06,3.76,2H59c0-.45.21-.85.21-1.32,0-5.36-6.87-6.37-10.61-6.55C48.64,56.4,48.27,56.36,47.21,56.35Zm32.1,0c-.48,0-1.12,0-3.91,0-5.6.11-14,1.9-14,9.9,0,4.52,4.2,4.92,7.92,5.28,2.91.29,5.79.63,8.63.91.82.08,1.63.26,1.63,1.17,0,1.54-1.58,2.09-3,2.18a11.88,11.88,0,0,1-2.18,0c-1.12,0-3-.62-2.79-2.23H58.94v1.88c0,5.72,9.73,6.09,11.58,6.19l3.15.11,4.82-.16c6.44-.42,13.39-2.35,13.71-10,.22-5.08-6.34-5-9.44-5.43L81.84,66c-.15,0-4.76-.41-7-.66-.35,0-1.88-.32-1.88-1.27,0-1.87,3.4-1.82,4.16-1.82,1.22,0,3.86,0,3.76,2H92.76c0-.45.2-.85.2-1.32,0-5.36-6.9-6.39-10.61-6.5C80.08,56.43,79.78,56.36,79.31,56.35Z"/><path class="cls-1" d="M18.53,48.42A3.32,3.32,0,0,0,15.08,45a3.44,3.44,0,0,0-3.5,3.45,3.48,3.48,0,1,0,7,0Z"/><path class="cls-1" d="M28,40.25A3.21,3.21,0,0,0,25,36.85,3,3,0,0,0,22.14,40c0,1.44,1,3.55,3.05,3.55C27.07,43.55,28,41.69,28,40.25Z"/><path class="cls-1" d="M19.54,95.55c-1.72,0-4,2.25-4,4a1.17,1.17,0,0,0,1.35,1.32,4.57,4.57,0,0,0,3.61-2.59,3.14,3.14,0,0,0,.27-.92v-.86C20.76,95.74,20.05,95.55,19.54,95.55Z"/><path class="cls-1" d="M12.19,91.33c-1.91,0-4.57,2-4.57,4.22a1.5,1.5,0,0,0,1.67,1.62c1.84,0,4.72-1.92,4.72-4.26C14,91.75,13.21,91.33,12.19,91.33Z"/><path class="cls-1" d="M6.91,64.06c1.8,0,4.31-1.24,4.31-3.8a3.18,3.18,0,0,0-3.35-3.15C6,57.11,3.5,58.43,3.5,60.92A3.19,3.19,0,0,0,6.91,64.06Z"/><path class="cls-1" d="M9.09,84.93c0-1.49-1.11-2.08-2.34-2.08-1.8,0-4.92,1.73-4.92,4.22,0,1.4.95,2,2.28,2C5.82,89.1,9.09,87.55,9.09,84.93Z"/><path class="cls-1" d="M7.87,73.36c0-1.78-1.45-2.59-3-2.59a2.84,2.84,0,0,0-.55,0C2.08,71,0,72.88,0,74.83s1.66,2.59,3.1,2.59C5,77.42,7.87,76,7.87,73.36Z"/><path class="cls-1" d="M27.62,96.21c-1.62,0-3.5,2.16-3.5,3.65a1,1,0,0,0,.41.92,1.92,1.92,0,0,0,2.08-.31,4.49,4.49,0,0,0,2-3.2A1,1,0,0,0,27.62,96.21Z"/><path class="cls-1" d="M50.62,38c-1.35,0-1.82,2.11-1.82,2.79S49,43,50.22,43c1.39,0,1.83-2.11,1.83-2.79S51.74,38,50.62,38Z"/><path class="cls-1" d="M55,43.6c-1.25,0-1.72,2.06-1.72,2.69s.2,1.78,1.16,1.78c1.23,0,1.68-2,1.68-2.64C56.16,45,56,43.6,55,43.6Z"/><path class="cls-1" d="M44,34.21c-1.58,0-2.08,2-2.08,2.89,0,.6.37,2.76,1.88,2.74s2.08-2,2.08-2.94C45.85,36.14,45.49,34.21,44,34.21Z"/><path class="cls-1" d="M41.84,90C40.41,90,39.4,92.15,39.4,93c0,.44.12.91.76.91,1.42,0,2.44-2.15,2.44-3C42.6,90.46,42.45,90,41.84,90Z"/><path class="cls-1" d="M35.14,33.39c-1.73,0-2.39,2-2.39,3.15s.85,3.15,2.54,3.15,2.37-2,2.34-3.1C37.59,35.25,37,33.39,35.14,33.39Z"/><path class="cls-1" d="M35.14,94.07c-1.57,0-2.9,2.25-2.9,3.41,0,.58.27.91.87.91,1.42,0,2.89-2.17,2.89-3.3C36,94.59,35.9,94.07,35.14,94.07Z"/></g><path id="original-wordmark-2" data-name="original-wordmark" class="cls-2" d="M212.21,38.56h124V82.28h-62v7.28H246.66V82.28H212.21ZM219.1,75h13.78V53.14h6.89V75h6.89V45.85H219.1Zm34.45-29.14V82.28h13.78V75H281.1V45.85Zm13.78,7.29h6.88V67.71h-6.88ZM288,45.85V75h13.78V53.14h6.89V75h6.89V53.14h6.89V75h6.89V45.85Z"/><g id="original-wordmark-3" data-name="original-wordmark"><path class="cls-3" d="M422.71,77.28h4.11V61.06l6.36,14.14c.75,1.71,1.78,2.32,3.79,2.32s3-.61,3.76-2.32l6.36-14.14V77.28h4.1V61.08a2.45,2.45,0,0,0-1.93-2.73c-3.12-1-5.22-.14-6.16,2l-6.24,14-6.05-14c-.91-2.11-3-3-6.16-2a2.45,2.45,0,0,0-1.94,2.73Z"/><path class="cls-3" d="M454.61,64.08h4.11V73c0,.49.15,1.63,2.4,1.67h8.94V64h4.12s0,14.52,0,14.58c0,3.58-4.44,4.35-6.5,4.41h-13V80.26h13c2.64-.28,2.33-1.59,2.33-2V77.15H461.3c-4.07,0-6.65-1.81-6.69-3.85C454.61,73.11,454.7,64.17,454.61,64.08Z"/><path class="cls-4" d="M477.34,77.28h11.81a9.14,9.14,0,0,0,3.8-.79c1.77-.81,2.64-1.92,2.64-3.37v-3c0-1.19-1-2.29-2.92-3a10,10,0,0,0-3.52-.61h-5c-1.66,0-2.45-.5-2.65-1.6a1.17,1.17,0,0,1,0-.37V62.64a1,1,0,0,1,0-.34c.2-.85.63-1.08,2.09-1.22l.4,0h11.73V58.32H484.22a11.34,11.34,0,0,0-3.32.34c-2.45.77-3.52,2-3.52,4.08v2.4c0,1.84,2.1,3.42,5.61,3.79.4,0,.79.06,1.19.06h4.26a3,3,0,0,1,.44,0c1.3.11,1.85.34,2.25.82a1,1,0,0,1,.31.74V73a1.37,1.37,0,0,1-.59,1,3,3,0,0,1-1.74.58l-.43,0H477.34Z"/><path class="cls-4" d="M521.22,72.52c0,2.81,2.1,4.39,6.32,4.71.4,0,.79,0,1.19,0h10.7V74.54H528.65c-2.41,0-3.32-.6-3.32-2.05V58.32h-4.11Z"/><path class="cls-4" d="M498.21,72.66V62.89c0-2.48,1.75-4,5.19-4.46a8.29,8.29,0,0,1,1.11-.08h7.8a8.74,8.74,0,0,1,1.14.08c3.45.48,5.19,2,5.19,4.46v9.77a3.57,3.57,0,0,1-2.44,3.79l4,3.65h-4.77l-3.27-2.95-3.3.21h-4.39a9.12,9.12,0,0,1-2.42-.35C499.48,76.3,498.21,74.93,498.21,72.66Zm4.44-.24a1.72,1.72,0,0,0,.08.42c.24,1.14,1.3,1.77,2.93,1.77h3.73L506,71.52h4.77l3,2.7a2,2,0,0,0,1-1.32,1.39,1.39,0,0,0,0-.4V63.13a1.26,1.26,0,0,0,0-.37c-.24-1-1.3-1.66-2.89-1.66h-6.21c-1.82,0-3,.79-3,2Z"/><path class="cls-3" d="M543.05,53.78a14.38,14.38,0,0,0-6.11.86c-.46.2-1.21.2-1.29.79.26.27.3.67.5,1a7.94,7.94,0,0,0,1.66,1.94,24.36,24.36,0,0,0,2,1.44c1.23.75,2.61,1.18,3.8,1.94.7.44,1.4,1,2.08,1.51.34.24.57.63,1,.78V64c-.23-.29-.29-.69-.5-1l-.94-.94a15.18,15.18,0,0,0-3.3-3.15c-1-.71-3.18-1.66-3.59-2.81l-.07-.07a16.43,16.43,0,0,0,2.15-.5c1.08-.29,2-.21,3.16-.5l1.51-.43v-.29c-.56-.58-1-1.34-1.58-1.87a45.87,45.87,0,0,0-5.17-3.88c-1-.63-2.24-1-3.3-1.58-.36-.18-1-.27-1.22-.57a14.92,14.92,0,0,1-1.3-2.44c-.9-1.74-1.78-3.63-2.58-5.46a30,30,0,0,0-1.58-3.59,31.71,31.71,0,0,0-12.21-11.78,14.93,14.93,0,0,0-4-1.29l-2.37-.14a15.89,15.89,0,0,1-1.44-1.08c-1.8-1.14-6.42-3.61-7.75-.36-.84,2.05,1.26,4.06,2,5.1a15.51,15.51,0,0,1,1.58,2.37c.25.54.29,1.08.5,1.65a38.43,38.43,0,0,0,1.65,4.24,15.72,15.72,0,0,0,1.15,1.94c.27.36.72.52.79,1.07a9,9,0,0,0-.72,2.37c-1.12,3.54-.7,7.94.94,10.56.5.8,1.68,2.53,3.3,1.87,1.42-.58,1.1-2.37,1.51-3.95.09-.36,0-.63.21-.87v.08c.44.86.87,1.72,1.3,2.58a17.52,17.52,0,0,0,4.09,4.24c.75.56,1.33,1.54,2.3,1.87v-.08h-.07c-.19-.29-.48-.41-.72-.64a16.23,16.23,0,0,1-1.65-1.87A43.6,43.6,0,0,1,515.26,47c-.51-1-.94-2-1.37-3-.16-.38-.16-.95-.5-1.15A14.3,14.3,0,0,0,511.88,45a18.45,18.45,0,0,0-.86,4.73c-.12,0-.07,0-.14.08-1-.25-1.35-1.27-1.73-2.16a13.55,13.55,0,0,1-.28-8.4c.21-.67,1.18-2.76.79-3.38-.19-.61-.81-1-1.15-1.43a10.79,10.79,0,0,1-1.15-2c-.77-1.74-1.13-3.7-1.94-5.46a16.14,16.14,0,0,0-1.58-2.44,14,14,0,0,1-1.72-2.44c-.17-.36-.39-.93-.15-1.3a.59.59,0,0,1,.43-.43c.42-.32,1.58.11,2,.29a16.92,16.92,0,0,1,3.09,1.58c.47.31.94.91,1.51,1.08h.65c1,.23,2.14.07,3.08.36a18.37,18.37,0,0,1,4.53,2.15,28.14,28.14,0,0,1,9.84,10.77c.37.72.53,1.4.86,2.16.66,1.53,1.49,3.1,2.15,4.59a21.59,21.59,0,0,0,2.23,4.24c.49.65,2.37,1,3.23,1.36a19,19,0,0,1,2.15.87c1.09.65,2.14,1.43,3.16,2.15C541.4,52.34,543,53.13,543.05,53.78Z"/><path class="cls-3" d="M511,26.42a4.9,4.9,0,0,0-1.29.14v.07h.07a9.23,9.23,0,0,0,1,1.29l.72,1.51a.46.46,0,0,0,.07-.07,1.74,1.74,0,0,0,.65-1.58,4,4,0,0,1-.36-.65C511.61,26.84,511.21,26.67,511,26.42Z"/></g><g id="original"><path class="cls-5" d="M708.78,32.41a46.43,46.43,0,0,1,2.56,11.64,50.85,50.85,0,0,1-.84,14.77c0,.14-.09.27-.13.4a5.34,5.34,0,0,0-1,0c-2.71.42-5.42.86-8.13,1.3s-5.61.89-8.4,1.37c-1,.18-2.22,0-2.62,1.34,0,0-.12,0-.19.07.05-2.73.09-5.46.14-8.19q-.08-9.87-.14-19.75l1.3-.22c2.14-.35,4.27-.71,6.41-1l7.64-1.19Z"/><path class="cls-6" d="M687.36,87.17c-1.38-1.19-2.8-2.32-4.12-3.56a51,51,0,0,1-14.85-24.08,39.14,39.14,0,0,1-1.32-8,44.93,44.93,0,0,1-.13-5.68,66.8,66.8,0,0,1,2.55-14.78s0-.07.08-.11a2.46,2.46,0,0,1,.42.57q2.14,6.33,4.27,12.66Q680.92,64.14,687.59,84a3,3,0,0,0,.48.71C687.83,85.55,687.59,86.36,687.36,87.17Z"/><path class="cls-7" d="M708.78,32.41l-3.38.5-7.64,1.19c-2.14.34-4.27.7-6.41,1l-1.3.22c0-.28,0-.57,0-.85,0-.7-.12-1.4-.13-2.1q-.07-6.69-.14-13.38-.06-4.18-.15-8.37c0-1.74-.07-3.47-.15-5.21,0-.93-.19-1.85-.25-2.78,0-.54,0-1.08,0-1.62.66,1.29,1.31,2.59,2,3.87,1.09,2,2.81,3.51,4.36,5.14A57.4,57.4,0,0,1,708.78,32.41Z"/><path class="cls-8" d="M690.05,63.31c.07,0,.18,0,.19-.07.4-1.37,1.63-1.16,2.62-1.34,2.79-.48,5.6-.92,8.4-1.37s5.42-.88,8.13-1.3a5.34,5.34,0,0,1,1,0c-.51,1.8-.91,3.65-1.55,5.41a60.52,60.52,0,0,1-2.55,5.85,40,40,0,0,1-5.17,8c-1.56,1.88-3.31,3.61-5.05,5.33-1,.95-2.1,1.72-3.16,2.57l-.28-.18-1-.85-1-2.24a33.94,33.94,0,0,1-1.13-8c0-.15,0-.31,0-.46,0-.66.1-1.32.14-2s.11-1.35.14-2Q689.91,66.94,690.05,63.31Z"/><path class="cls-9" d="M690.05,63.31q-.13,3.63-.29,7.28c0,.68-.09,1.35-.14,2l-.62.23c-1.38-4.07-2.77-8.1-4.12-12.14-2.24-6.69-4.45-13.38-6.69-20.07q-2.7-8.1-5.45-16.18a2.9,2.9,0,0,0-.51-.67l4-7.33a3.88,3.88,0,0,1,.4.71q2.77,8.19,5.51,16.39,3.57,10.67,7.11,21.33c.1.28.25.55.4.87.24-.29.4-.46.55-.64C690.14,57.85,690.1,60.58,690.05,63.31Z"/><path class="cls-10" d="M672.23,23.79a2.9,2.9,0,0,1,.51.67q2.75,8.09,5.45,16.18c2.24,6.69,4.45,13.38,6.69,20.07,1.35,4,2.74,8.07,4.12,12.14l.62-.23c0,.65-.09,1.31-.14,2l-.12.46c-.22,2.16-.4,4.33-.67,6.48-.13,1.09-.41,2.15-.62,3.22a3,3,0,0,1-.48-.71q-6.68-19.91-13.33-39.82-2.13-6.33-4.27-12.66a2.46,2.46,0,0,0-.42-.57Q670.91,27.39,672.23,23.79Z"/><path class="cls-11" d="M690.19,55.12c-.15.18-.31.35-.55.64-.15-.32-.3-.59-.4-.87q-3.56-10.66-7.11-21.33-2.73-8.21-5.51-16.39a3.88,3.88,0,0,0-.4-.71L681.15,10a2.48,2.48,0,0,1,.46.63q2.05,6,4.07,12c1.26,3.75,2.5,7.51,3.78,11.25.08.25.38.43.58.64,0,.28,0,.57,0,.85Q690.11,45.24,690.19,55.12Z"/><path class="cls-12" d="M690,34.52c-.2-.21-.5-.39-.58-.64-1.28-3.74-2.52-7.5-3.78-11.25q-2-6-4.07-12a2.48,2.48,0,0,0-.46-.63c1.6-1.57,3.16-3.19,4.83-4.69C687.46,4,688.65,2.52,688.7.42a3.57,3.57,0,0,1,.12-.42c.18.44.3.75.43,1.06,0,.54-.06,1.08,0,1.62.06.93.21,1.85.25,2.78.08,1.74.12,3.47.15,5.21q.09,4.19.15,8.37.08,6.69.14,13.38C689.92,33.12,690,33.82,690,34.52Z"/><path class="cls-13" d="M688.07,84.75c.21-1.07.49-2.13.62-3.22.27-2.15.45-4.32.67-6.48h.11a33.94,33.94,0,0,0,1.13,8,2.79,2.79,0,0,0-.42.57c-.59,1.67-1.15,3.35-1.75,5a2.39,2.39,0,0,1-.46.61c-.21-.7-.41-1.4-.61-2.09C687.59,86.36,687.83,85.55,688.07,84.75Z"/><path class="cls-14" d="M688,89.26a2.39,2.39,0,0,0,.46-.61c.6-1.67,1.16-3.35,1.75-5a2.79,2.79,0,0,1,.42-.57l1,2.24a4,4,0,0,0-.59.87c-.67,1.91-1.29,3.83-2,5.74-.08.23-.35.4-.54.59C688.34,91.42,688.16,90.34,688,89.26Z"/><path class="cls-15" d="M688.53,92.5c.19-.19.46-.36.54-.59.67-1.91,1.29-3.83,2-5.74a4,4,0,0,1,.59-.87l1,.85a1.72,1.72,0,0,0-.58,1.7l-.3,1c-.14.17-.34.31-.4.5-.69,2-1.34,3.93-2,5.89a2.74,2.74,0,0,1-.5.66Z"/><path class="cls-16" d="M688.8,95.89a2.74,2.74,0,0,0,.5-.66c.69-2,1.34-3.93,2-5.89.06-.19.26-.33.4-.5l-.42,4.51c-.11.13-.27.24-.32.39-.47,1.32-.91,2.64-1.38,4a5.35,5.35,0,0,1-.43.77c-.13-.17-.36-.33-.37-.51C688.77,97.26,688.8,96.58,688.8,95.89Z"/><path class="cls-17" d="M689.18,98.46a5.35,5.35,0,0,0,.43-.77c.47-1.31.91-2.63,1.38-4,0-.15.21-.26.32-.39,0,1,0,2,0,3l-1,2.54Z"/><path class="cls-18" d="M690.33,98.86l1-2.54c.07.94.13,1.88.21,3Z"/><path class="cls-16" d="M692,87.85a1.72,1.72,0,0,1,.58-1.7l.28.18Z"/><path class="cls-9" d="M689.47,75.05h-.11l.12-.46C689.48,74.74,689.47,74.9,689.47,75.05Z"/></g><path class="cls-19" d="M725.91,110.26a6.61,6.61,0,0,0-3-2.91,8.36,8.36,0,0,0-3.48-.8c-.9,0-1.81,0-2.72,0s-1.61,0-2.42,0l-2.84-.06a.31.31,0,0,0-.34.18c-.11.25-.25.49-.39.76a.54.54,0,0,0,.16,0l1.41.25a1,1,0,0,1,.9,1c0,.72,0,1.45,0,2.17q0,4.29,0,8.58a2.17,2.17,0,0,1-.06.57c-.06.2-.12.47-.28.57a2.26,2.26,0,0,1-.9.35c-.46.07-.54.09-.68.54l-.06.23c-.07.24,0,.29.22.29,1.47,0,2.94,0,4.4,0a21.51,21.51,0,0,0,4-.17,9.41,9.41,0,0,0,3.51-1.36,7,7,0,0,0,2.92-3.72,9.24,9.24,0,0,0,.38-3.94A7.34,7.34,0,0,0,725.91,110.26Zm-2.57,7.87a4.79,4.79,0,0,1-3.63,2.69,5.71,5.71,0,0,1-3.09-.28,1.43,1.43,0,0,1-.89-1.44c0-.63,0-1.27,0-1.9v-6.68q0-1,0-2.1c0-.5.11-.66.59-.7a7.31,7.31,0,0,1,5.8,1.53A5.92,5.92,0,0,1,724,112.7c.1.56.13,1.13.19,1.7A8.39,8.39,0,0,1,723.34,118.13Z"/><path class="cls-19" d="M741.09,115.72a3.78,3.78,0,0,0-2.2-2.06c-.34-.14-.69-.25-1.06-.39l.13-.08a8.55,8.55,0,0,0,1.18-.77,3.09,3.09,0,0,0,1-2.84,3,3,0,0,0-1.66-2.38,5.74,5.74,0,0,0-2.78-.64c-1.68,0-3.36,0-5.05,0-.58,0-1.16,0-1.74,0-.11,0-.28,0-.32.1a3.43,3.43,0,0,0-.32.67c0,.13,0,.2.15.22l1.21.19a.89.89,0,0,1,.87.94c0,.11,0,.22,0,.33v5.27c0,1.75,0,3.5,0,5.25a3.71,3.71,0,0,1-.07.67.68.68,0,0,1-.56.63l-1,.19c-.11,0-.28,0-.32.09a1.41,1.41,0,0,0-.3.89l.1,0,3.22.08h.64c1.12,0,2.23,0,3.34,0a7.41,7.41,0,0,0,3.39-1,4.43,4.43,0,0,0,2.27-2.82A3.94,3.94,0,0,0,741.09,115.72Zm-8.18-7.48c0-.35.16-.5.51-.51A6.89,6.89,0,0,1,736,108a2.5,2.5,0,0,1,1.73,2.44,3.75,3.75,0,0,1-.16,1.29,2,2,0,0,1-1.79,1.34c-.45,0-.9,0-1.3.08l-1.34-.06c-.18,0-.26-.09-.25-.27C732.87,111.3,732.89,109.77,732.91,108.24Zm5.54,11a2.78,2.78,0,0,1-2.2,1.6,5.48,5.48,0,0,1-2.35-.1,1.32,1.32,0,0,1-.93-1.12,5.81,5.81,0,0,1-.07-1.11c0-.55,0-1.69,0-1.69h0c0-.82,0-1.52,0-2.3,0-.17,0-.25.24-.25l2.19.06a4.29,4.29,0,0,1,1.85.53,2.88,2.88,0,0,1,1.55,2.19A3.81,3.81,0,0,1,738.45,119.23Z"/><path class="cls-19" d="M658.17,120.11c0-1.48,0-3,0-4.43a5.89,5.89,0,0,0-.3-2,3,3,0,0,0-4-1.91,9,9,0,0,0-2.16,1.21c-.39.28-.39.28-.68-.12a2.71,2.71,0,0,0-3.28-1.12,7.69,7.69,0,0,0-2.33,1.28c-.07.05-.2.11-.24.08a.35.35,0,0,1-.11-.26c0-.26,0-.52,0-.78a4.4,4.4,0,0,0,0-.51c-.32.11-.58.22-.85.29l-2.51.58c-.2,0-.41.11-.43.34s.2.27.37.34c.36.14.72.3,1.07.45a.67.67,0,0,1,.41.69v4.12c0,.56,0,1.11-.06,1.67a.75.75,0,0,1-.67.83l-.77.17s-.15,0-.15.07a3.55,3.55,0,0,0,0,.73s.26,0,.4.06h.1l3,0h1.62c0-.23,0-.51.06-.79-.33-.06-.62-.1-.91-.17a.72.72,0,0,1-.65-.78v-.65c0-1.67,0-3.35,0-5a.66.66,0,0,1,.32-.58,4.66,4.66,0,0,1,1.46-.69,2,2,0,0,1,2.52,1.06,3.2,3.2,0,0,1,.27,1,33.92,33.92,0,0,1,0,5,.64.64,0,0,1-.55.63c-.28.07-.57.11-.84.18-.07,0-.17,0-.17,0,0,.23,0,.58,0,.58h.2c.85,0,1.7.09,2.56.09.7,0,1.4.08,2.1.1.13,0,.24,0,.24-.13a5,5,0,0,0,0-.67.88.88,0,0,0-.14,0l-.72-.17c-.48-.11-.65-.3-.65-.79,0-1.21,0-2.42,0-3.63,0-.7,0-1.39-.08-2.08a.41.41,0,0,1,.16-.41,4.38,4.38,0,0,1,1.41-.68,2.19,2.19,0,0,1,3,2.07c.08,1.57,0,3.14,0,4.71,0,.55-.18.71-.72.86l-.18,0c-.56.13-.55.13-.52.72,0,.18.06.23.26.22l3.37,0h1.42c0-.24.07-.51.1-.76-.44-.12-.85-.2-1.24-.33A.62.62,0,0,1,658.17,120.11Z"/><path class="cls-19" d="M696.84,113.4a1.61,1.61,0,0,0,.33-1.63,1.81,1.81,0,0,1-1.24.6,3.93,3.93,0,0,1-1.83-.26,5.43,5.43,0,0,0-4.69.11,3.46,3.46,0,0,0-2.19,3.08,3.6,3.6,0,0,0,.76,2.6,3.22,3.22,0,0,0,1.41.94c.24.09.26.2.06.35l-.45.31-1,.61a.4.4,0,0,0-.2.51,2.14,2.14,0,0,0,1.28,1.36,1.53,1.53,0,0,1,.22.16l-.2.19c-.59.48-1.21.93-1.77,1.45a1.58,1.58,0,0,0-.49,1.63,3.16,3.16,0,0,0,2.32,2.41,6.51,6.51,0,0,0,5.82-1,4.57,4.57,0,0,0,2-3,2.48,2.48,0,0,0-2-3c-1-.18-2-.23-2.94-.34a10.5,10.5,0,0,1-1.37-.19.64.64,0,0,1-.53-.7.76.76,0,0,1,.71-.6,6.12,6.12,0,0,0,2.11-.48,3.8,3.8,0,0,0,2.39-4.14c0-.26-.09-.51-.14-.81C695.8,113.68,696.38,113.83,696.84,113.4Zm-5.38,9a9.26,9.26,0,0,1,2.33.3,1.79,1.79,0,0,1,1.44,1.34,2.17,2.17,0,0,1-1.16,2.38,4.48,4.48,0,0,1-2.72.41,3.29,3.29,0,0,1-2.1-1,1.82,1.82,0,0,1,0-2.65A2.4,2.4,0,0,1,691.46,122.37Zm1.8-5.67a1.78,1.78,0,0,1-2.6,1.1,2.5,2.5,0,0,1-1.36-1.91c-.07-.31-.09-.64-.13-1a3.35,3.35,0,0,1,.29-1.33,2,2,0,0,1,2.95-.62,2.09,2.09,0,0,1,.76,1A4.06,4.06,0,0,1,693.26,116.7Z"/><path class="cls-19" d="M685.63,121a6.31,6.31,0,0,1-.86-.2c-.49-.15-.55-.24-.56-.76,0-1.46,0-2.92,0-4.38a6.64,6.64,0,0,0-.29-1.93,3,3,0,0,0-3.77-2,6.93,6.93,0,0,0-2.39,1.36l-.26.2a2.36,2.36,0,0,1,0-.27c0-.31,0-.62,0-.93a3.11,3.11,0,0,0-.1-.46c-.61.18-1.16.37-1.72.51s-1.14.24-1.71.35c-.28.06-.49.23-.48.42s.23.33.43.41l1.08.46a.58.58,0,0,1,.35.59c0,1.9,0,3.8-.06,5.7,0,.6-.16.75-.75.88l-.25.06c-.55.09-.57.11-.53.69,0,0,0,.06,0,.09,0,.23.09.3.31.29l4.35,0c.62,0,.69,0,.68-.68a2.23,2.23,0,0,0,0-.27c-.36-.06-.7-.11-1-.18a.54.54,0,0,1-.5-.57c0-.33,0-.66,0-1,0-1.49,0-3,0-4.47a1.07,1.07,0,0,1,.41-1,3.39,3.39,0,0,1,1.73-.62,2,2,0,0,1,2.35,2c.08,1.59.06,3.18.08,4.78a2,2,0,0,1,0,.35.49.49,0,0,1-.38.47,5.44,5.44,0,0,1-.7.15c-.35,0-.36,0-.38.41a1.76,1.76,0,0,0,0,.23c.05.42.05.4.46.4l4.21,0c.59,0,.63,0,.63-.63v-.14C685.86,121.07,685.79,121,685.63,121Z"/><path class="cls-19" d="M705.22,111.77a5.83,5.83,0,0,0-4.19.59,4.5,4.5,0,0,0-2.47,3.11,6.13,6.13,0,0,0,.46,4.17,4.11,4.11,0,0,0,1.91,2,5.66,5.66,0,0,0,6.09-.8,5.38,5.38,0,0,0,1.74-4.29c0-.17,0-.51-.08-.85A4.58,4.58,0,0,0,705.22,111.77Zm1.11,7.45a2.32,2.32,0,0,1-3.22,1.69,3.13,3.13,0,0,1-1.72-1.48,6.41,6.41,0,0,1-.55-5,2.27,2.27,0,0,1,2.43-1.71,3,3,0,0,1,2.36,1.38,5.45,5.45,0,0,1,.9,2.9c0,.17,0,.34,0,.51h.07A16.59,16.59,0,0,1,706.33,119.22Z"/><path class="cls-19" d="M668.25,111.74a5.85,5.85,0,0,0-4.34.78,4.51,4.51,0,0,0-2.2,3,6.37,6.37,0,0,0,.28,3.64,4.37,4.37,0,0,0,1.27,1.86,5,5,0,0,0,4.26,1,5.26,5.26,0,0,0,3.32-1.93,5.75,5.75,0,0,0,1.11-3.47,10,10,0,0,0-.14-1.21A4.45,4.45,0,0,0,668.25,111.74Zm1.26,7.48a2.33,2.33,0,0,1-3.21,1.7,3.34,3.34,0,0,1-2-1.94,6.59,6.59,0,0,1-.35-4.46,2.31,2.31,0,0,1,2.69-1.81,3,3,0,0,1,2.09,1.29,5.65,5.65,0,0,1,1,3.25v.24h.06C669.69,118.07,669.65,118.66,669.51,119.22Z"/><path class="cls-19" d="M859,125.19a7.16,7.16,0,0,0,3.39.78c3,0,4.54-1.47,4.54-3.49,0-1.65-1-2.68-3-3.41-1.42-.51-1.95-.85-1.95-1.56s.55-1.17,1.56-1.17a5.09,5.09,0,0,1,2.36.64l.55-2a6.47,6.47,0,0,0-3-.67c-2.59,0-4.22,1.54-4.22,3.51,0,1.31.9,2.5,3.08,3.26,1.37.48,1.83.87,1.83,1.62s-.55,1.24-1.79,1.24a6.25,6.25,0,0,1-2.86-.8Zm14.36-10.87a5.52,5.52,0,0,0-5.78,5.92,5.4,5.4,0,0,0,5.59,5.75,5.52,5.52,0,0,0,5.73-5.94A5.35,5.35,0,0,0,873.34,114.32Zm-.07,2.06c1.92,0,2.7,2,2.7,3.74,0,2.25-1.12,3.83-2.73,3.83s-2.77-1.63-2.77-3.78C870.47,118.31,871.27,116.38,873.27,116.38Zm14.79,6.93a5.48,5.48,0,0,1-2.22.43,3.62,3.62,0,0,1,0-7.22A4.89,4.89,0,0,1,888,117l.51-2.11a7,7,0,0,0-2.73-.53c-3.92,0-6.22,2.62-6.22,6a5.37,5.37,0,0,0,5.76,5.69,8.22,8.22,0,0,0,3.16-.57Zm4.34-13.85h-2.82v16.28h2.82v-3.81l1-1.12,3.21,4.93H900l-4.72-6.6,4.12-4.57h-3.39l-2.71,3.6c-.29.39-.61.87-.89,1.31h-.05ZM909.61,121a7.82,7.82,0,0,0,.09-1.2c0-2.45-1.19-5.43-4.81-5.43s-5.46,2.91-5.46,6c0,3.41,2.13,5.64,5.75,5.64a10.49,10.49,0,0,0,3.9-.69l-.41-2a8.42,8.42,0,0,1-3.1.51c-1.78,0-3.37-.88-3.44-2.89Zm-7.48-2a2.76,2.76,0,0,1,2.59-2.73A2.4,2.4,0,0,1,907,119Zm9.37-6.93v2.52h-1.61v2.11h1.61v5.25a4.43,4.43,0,0,0,.87,3.12,3.29,3.29,0,0,0,2.43.92,6.19,6.19,0,0,0,2-.28l-.05-2.15a4.09,4.09,0,0,1-1.1.14c-1.08,0-1.44-.71-1.44-2.07v-4.93h2.68v-2.11h-2.68v-3.18ZM919.37,126a1.81,1.81,0,1,0-1.74-1.81A1.7,1.7,0,0,0,919.37,126Zm5.9-.25V114.57h-2.84v11.17Zm-1.42-15.82a1.5,1.5,0,0,0-1.58,1.53,1.48,1.48,0,0,0,1.56,1.52,1.53,1.53,0,1,0,0-3Zm8.56,4.4a5.52,5.52,0,0,0-5.78,5.92,5.4,5.4,0,0,0,5.59,5.75,5.53,5.53,0,0,0,5.74-5.94A5.36,5.36,0,0,0,932.41,114.32Zm-.07,2.06c1.92,0,2.7,2,2.7,3.74,0,2.25-1.12,3.83-2.72,3.83s-2.78-1.63-2.78-3.78C929.54,118.31,930.34,116.38,932.34,116.38Z"/><path class="cls-19" d="M889,44.1c8.49-6.94,16.8-14.11,25.47-20.84-4.55,7-9.23,13.89-13.78,20.87C896.82,44.15,892.92,44.15,889,44.1ZM896.21,48c3.92,0,7.82,0,11.72.06-8.54,6.9-16.81,14.13-25.5,20.84C887,61.87,891.66,55,896.21,48Z"/><path class="cls-1" d="M898.47,5.37a40.69,40.69,0,1,0,40.69,40.69A40.75,40.75,0,0,0,898.47,5.37Zm0,6.79a33.9,33.9,0,1,1-33.9,33.9A33.84,33.84,0,0,1,898.47,12.16Z"/><path class="cls-1" d="M1080.46,101.78a25.6,25.6,0,0,0-8.77,1.27,34.43,34.43,0,0,0-1.17,9.4c0,6.33,1.08,10.22,8.31,10.22a19.25,19.25,0,0,0,8.41-2.08l-.72-3.26a22.67,22.67,0,0,1-7.41,1.54c-3.17,0-4.16-.82-4.34-6.24h13.56v-2C1088.33,105.13,1086.34,101.78,1080.46,101.78Zm-5.69,8.32a18.81,18.81,0,0,1,.45-4.25,25.75,25.75,0,0,1,5.06-.36c3,0,3.53,1.9,3.53,4.61Zm-13.66-8.32a26.57,26.57,0,0,0-7.14,1.36V93.83h-3.61v28H1054v-15a20,20,0,0,1,6.33-1.35c.91,0,1.81.45,1.81,1.53V122.3l.36-.36h4.16V107.66C1066.63,104.22,1065,101.78,1061.11,101.78Zm97.73.18v15.73a22.62,22.62,0,0,1-7,1.36c-.9,0-2.08-.45-2.08-1.54V102h-3.61v15.1c0,3.34,1.17,5.7,5.06,5.7a21,21,0,0,0,11.21-3.17V102Zm-16.45,0h-4.88c-1.18,2.71-2.89,6.33-5.06,8.14h-1.63V93.83h-4.52v28h4.52v-9h1.9c2.53,2.71,4.16,6.33,5.42,9h5.06a68.15,68.15,0,0,0-7-11.21A29.9,29.9,0,0,0,1142.39,102Zm-50.45,19.89h3.62v-15a22.25,22.25,0,0,1,6.33-1.08v-3.62a23.89,23.89,0,0,0-10,2.81Zm21.16-20.07c-5.52,0-9.31,2.89-9.31,10.58,0,7.23,2.89,10.4,9.31,10.4,5.51,0,9.31-2.9,9.31-10.58C1122.41,105,1119.52,101.78,1113.1,101.78Zm0,17.36c-3.62,0-5.15-1.27-5.15-6.78,0-5.06,1.8-7,5.15-7,3.61,0,5.15,1.26,5.15,6.78C1118.16,117.24,1116.35,119.14,1113.1,119.14Zm25-100.08a7.48,7.48,0,0,0-7.5-7.5h-48.28a7.48,7.48,0,0,0-7.5,7.5V82.71a7.48,7.48,0,0,0,7.5,7.5h48.28a7.48,7.48,0,0,0,7.5-7.5Zm-60.57.45a5.11,5.11,0,0,1,5.15-5.24h47.47a5.19,5.19,0,0,1,5.24,5.24V82.25a5.19,5.19,0,0,1-5.15,5.34h-47.56a5.14,5.14,0,0,1-5.15-5.34Zm48.73,2.89h-9.68s-3.07,7.24-6.41,10.85h9.4C1124.58,26.92,1126.21,22.4,1126.21,22.4Zm-37,56.87,8.86-9-8.86-8.86Zm25.32-31.19V79.27l-.1.09h8.23V48.17c0-17.09-24.41-7.41-24.41-7.41V22.22l-8.86.09s0,28.93.09,28.84C1116.53,40.67,1114.55,48.08,1114.55,48.08Z"/></g></g></svg>