<?xml version="1.0" encoding="utf-8"?>
<!-- Generator: Adobe Illustrator 25.2.3, SVG Export Plug-In . SVG Version: 6.00 Build 0)  -->
<svg version="1.1" id="Layer_1" xmlns="http://www.w3.org/2000/svg" xmlns:xlink="http://www.w3.org/1999/xlink" x="0px" y="0px"
	 viewBox="0 0 15 15.1" style="enable-background:new 0 0 15 15.1;" xml:space="preserve">
<style type="text/css">
	.st0{fill:#33444C;}
</style>
<g id="Group_3866" transform="translate(-96 -935)">
	<path id="Path_13579" class="st0" d="M96.2,940h3.1v10.1h-3.1V940z M97.8,935c1,0,1.8,0.8,1.8,1.8s-0.8,1.8-1.8,1.8
		s-1.8-0.8-1.8-1.8C96,935.8,96.8,935,97.8,935C97.8,935,97.8,935,97.8,935"/>
	<path id="Path_13580" class="st0" d="M101.3,940h3v1.4l0,0c0.6-1,1.7-1.7,2.9-1.6c3.2,0,3.7,2.1,3.7,4.8v5.4h-3.1v-4.9
		c0-1.2,0-2.7-1.6-2.7s-1.9,1.3-1.9,2.6v5h-3V940z"/>
</g>
</svg>
