<svg xmlns="http://www.w3.org/2000/svg" xmlns:xlink="http://www.w3.org/1999/xlink" viewBox="0 0 150.3 22.87"><defs><style>.cls-1{fill:none;}.cls-2{clip-path:url(#clip-path);}.cls-3{fill:#eac613;}.cls-4{clip-path:url(#clip-path-2);}.cls-5{clip-path:url(#clip-path-3);}.cls-6{clip-path:url(#clip-path-4);}.cls-7{clip-path:url(#clip-path-5);}</style><clipPath id="clip-path" transform="translate(0 -0.59)"><rect class="cls-1" width="24" height="24"/></clipPath><clipPath id="clip-path-2" transform="translate(0 -0.59)"><rect class="cls-1" x="31.57" width="24" height="24"/></clipPath><clipPath id="clip-path-3" transform="translate(0 -0.59)"><rect class="cls-1" x="126.3" width="24" height="24"/></clipPath><clipPath id="clip-path-4" transform="translate(0 -0.59)"><rect class="cls-1" x="94.72" width="24" height="24"/></clipPath><clipPath id="clip-path-5" transform="translate(0 -0.59)"><rect class="cls-1" x="63.15" width="24" height="24"/></clipPath></defs><g id="Layer_2" data-name="Layer 2"><g id="Layer_1-2" data-name="Layer 1"><g class="cls-2"><path class="cls-3" d="M23.15,8.54l-7.09-1L12.9,1.1a1,1,0,0,0-.38-.38A1,1,0,0,0,12,.59a1,1,0,0,0-.89.51L7.94,7.51l-7.08,1a1,1,0,0,0-.5.22,1,1,0,0,0-.31.46.94.94,0,0,0,0,.55,1,1,0,0,0,.27.47l5.13,5-1.21,7a1,1,0,0,0,.06.55,1,1,0,0,0,.34.43,1,1,0,0,0,.51.19,1.12,1.12,0,0,0,.54-.11L12,20l6.33,3.33a1.14,1.14,0,0,0,.54.11,1.06,1.06,0,0,0,.52-.19,1,1,0,0,0,.34-.43,1,1,0,0,0,.06-.55l-1.21-7,5.12-5A1,1,0,0,0,24,9.77a.94.94,0,0,0,0-.55,1,1,0,0,0-.3-.46,1.07,1.07,0,0,0-.5-.22Z" transform="translate(0 -0.59)"/></g><g class="cls-4"><path class="cls-3" d="M54.72,8.54l-7.08-1L44.48,1.1A1.15,1.15,0,0,0,44.1.72a1.1,1.1,0,0,0-1,0,1,1,0,0,0-.38.38L39.51,7.51l-7.08,1a1,1,0,0,0-.5.22,1,1,0,0,0-.31.46,1.14,1.14,0,0,0,0,.55,1,1,0,0,0,.28.47l5.12,5-1.21,7a1,1,0,0,0,.06.55,1,1,0,0,0,.34.43,1.06,1.06,0,0,0,.52.19,1.08,1.08,0,0,0,.53-.11L43.58,20l6.33,3.33a1.09,1.09,0,0,0,.54.11,1.06,1.06,0,0,0,.51-.19,1,1,0,0,0,.34-.43,1,1,0,0,0,.06-.55l-1.21-7,5.13-5a1.06,1.06,0,0,0,.27-.47,1,1,0,0,0,0-.55,1.11,1.11,0,0,0-.31-.46,1,1,0,0,0-.5-.22Z" transform="translate(0 -0.59)"/></g><g class="cls-5"><path class="cls-3" d="M149.44,8.54l-7.08-1L139.2,1.1a1,1,0,0,0-.38-.38,1.06,1.06,0,0,0-.52-.13,1,1,0,0,0-.51.13,1.09,1.09,0,0,0-.39.38l-3.16,6.41-7.08,1a1.06,1.06,0,0,0-.51.22,1,1,0,0,0-.3.46.94.94,0,0,0,0,.55,1,1,0,0,0,.27.47l5.12,5-1.2,7a.94.94,0,0,0,0,.55,1,1,0,0,0,.34.43,1.06,1.06,0,0,0,.52.19,1.14,1.14,0,0,0,.54-.11L138.3,20l6.33,3.33a1.12,1.12,0,0,0,.54.11,1.1,1.1,0,0,0,.52-.19,1,1,0,0,0,.33-.43,1,1,0,0,0,.06-.55l-1.21-7,5.13-5a1,1,0,0,0,.27-.47.94.94,0,0,0,0-.55,1.08,1.08,0,0,0-.3-.46,1.06,1.06,0,0,0-.51-.22Z" transform="translate(0 -0.59)"/></g><g class="cls-6"><path class="cls-3" d="M117.87,8.54l-7.08-1L107.62,1.1a1,1,0,0,0-.89-.51,1.06,1.06,0,0,0-.52.13,1,1,0,0,0-.38.38l-3.17,6.41-7.08,1a1,1,0,0,0-.5.22,1,1,0,0,0-.31.46,1,1,0,0,0,0,.55,1.06,1.06,0,0,0,.27.47l5.13,5-1.21,7a1,1,0,0,0,.06.55,1,1,0,0,0,.34.43,1.06,1.06,0,0,0,.51.19,1.09,1.09,0,0,0,.54-.11L106.72,20l6.34,3.33a1.08,1.08,0,0,0,.53.11,1.06,1.06,0,0,0,.52-.19,1,1,0,0,0,.34-.43,1,1,0,0,0,.06-.55l-1.21-7,5.12-5a1,1,0,0,0,.28-.47,1.14,1.14,0,0,0,0-.55,1.11,1.11,0,0,0-.31-.46,1,1,0,0,0-.5-.22Z" transform="translate(0 -0.59)"/></g><g class="cls-7"><path class="cls-3" d="M86.29,8.54l-7.08-1L76.05,1.1a1,1,0,0,0-.38-.38,1.06,1.06,0,0,0-.52-.13,1,1,0,0,0-.89.51L71.09,7.51,64,8.54a1,1,0,0,0-.5.22,1,1,0,0,0-.31.46.94.94,0,0,0,0,.55,1,1,0,0,0,.27.47l5.13,5-1.21,7a.94.94,0,0,0,.06.55,1,1,0,0,0,.33.43,1.06,1.06,0,0,0,.52.19,1.12,1.12,0,0,0,.54-.11L75.15,20l6.33,3.33a1.12,1.12,0,0,0,.54.11,1.06,1.06,0,0,0,.52-.19,1,1,0,0,0,.33-.43.87.87,0,0,0,.06-.55l-1.2-7,5.12-5a1,1,0,0,0,.27-.47.94.94,0,0,0,0-.55,1.08,1.08,0,0,0-.3-.46,1.07,1.07,0,0,0-.5-.22Z" transform="translate(0 -0.59)"/></g></g></g></svg>